# xmcd CD database file
#
# Track frame offsets:
#	150
#	12732
#	26890
#	42644
#	66180
#	90046
#	115678
#	134629
#	158350
#	177628
#	197054
#
# Disc length: 2785 seconds
#
# Revision: 0
# Processed by: cddbd v1.5.2PL0 Copyright (c) Steve Scherf et al.
# Submitted via: CDex 1.51
#
DISCID=950adf0b
DTITLE=Elaine Silver - I Choose Love
DYEAR=2002
DGENRE=New Age
TTITLE0=Spirit Within Me
TTITLE1=I Always Do My Best
TTITLE2=Angels of Blessings
TTITLE3=Call On the Moon
TTITLE4=Come To Me
TTITLE5=Song For My Beloved
TTITLE6=Something So Fine
TTITLE7=I Let the Light of Angels Bless Me
TTITLE8=The Faerie Blessing Song
TTITLE9=I Choose Love
TTITLE10=I Will
EXTD=YEAR: 2002
EXTT0=
EXTT1=
EXTT2=
EXTT3=
EXTT4=
EXTT5=
EXTT6=
EXTT7=
EXTT8=
EXTT9=
EXTT10=
PLAYORDER=
